<?xml version="1.0" standalone="no"?>
<!DOCTYPE svg PUBLIC "-//W3C//DTD SVG 20010904//EN"
 "http://www.w3.org/TR/2001/REC-SVG-20010904/DTD/svg10.dtd">
<svg version="1.0" xmlns="http://www.w3.org/2000/svg"
 width="626.000000pt" height="626.000000pt" viewBox="0 0 626.000000 626.000000"
 preserveAspectRatio="xMidYMid meet">
<metadata>
Created by potrace 1.14, written by Peter Selinger 2001-2017
</metadata>
<g transform="translate(0.000000,626.000000) scale(0.100000,-0.100000)"
fill="#000000" stroke="none">
<path d="M3290 5589 c-107 -19 -446 -89 -500 -105 -30 -8 -84 -23 -120 -33
-117 -32 -273 -99 -395 -170 -66 -38 -121 -68 -123 -67 -1 2 4 43 13 91 24
141 17 267 -17 273 -17 3 -38 -24 -123 -161 -43 -70 -86 -119 -200 -229 -80
-77 -184 -172 -232 -211 -49 -39 -160 -132 -248 -207 -88 -75 -169 -142 -180
-147 -24 -14 -58 8 -126 79 -49 53 -77 60 -109 28 -18 -18 -20 -33 -20 -189 0
-160 -1 -170 -20 -176 -11 -3 -56 -37 -100 -76 -44 -38 -98 -80 -120 -94 -52
-33 -107 -108 -168 -231 -28 -55 -66 -121 -86 -147 -65 -85 -78 -121 -83 -231
-5 -92 -3 -108 22 -176 15 -41 38 -97 52 -123 24 -49 24 -49 7 -115 -48 -192
-17 -370 122 -699 35 -84 64 -155 64 -159 0 -23 125 -257 148 -276 31 -26 109
-139 217 -313 44 -72 100 -145 151 -197 44 -46 95 -103 114 -128 18 -25 50
-62 69 -83 63 -67 332 -270 456 -343 215 -128 280 -155 635 -268 218 -70 267
-75 725 -83 344 -5 353 -5 500 21 147 25 328 78 591 174 182 66 435 201 609
326 159 114 380 343 482 502 26 41 69 103 95 138 39 53 178 311 178 330 0 4
18 48 39 99 22 50 58 164 81 252 40 156 41 166 51 410 12 301 5 386 -52 604
-64 243 -108 342 -285 640 -25 41 -43 75 -42 76 5 3 90 26 138 36 25 5 98 21
163 35 135 29 217 65 217 94 0 31 -64 95 -225 223 -82 66 -152 123 -155 127
-22 29 -146 118 -208 149 -43 22 -104 58 -137 80 -75 51 -193 97 -400 154
-245 68 -632 157 -684 157 -17 0 -31 3 -30 8 2 20 145 132 212 167 43 21 77
44 77 51 0 32 -81 59 -290 96 -108 19 -165 23 -410 24 -157 1 -310 -2 -340 -7z
m-792 -1395 c37 -9 92 -24 122 -34 52 -17 153 -29 285 -35 33 -2 150 -8 260
-13 110 -6 259 -12 330 -13 184 -3 222 -4 485 -18 171 -9 268 -9 355 -2 66 6
221 15 345 21 262 12 344 22 476 56 53 13 105 24 115 24 25 0 62 -57 171 -270
93 -180 97 -190 151 -400 89 -343 99 -436 77 -661 -11 -101 -21 -156 -74 -399
-34 -156 -116 -352 -214 -510 -44 -69 -94 -152 -112 -185 -89 -162 -209 -311
-320 -398 -36 -28 -101 -83 -145 -122 -126 -112 -366 -264 -480 -304 -27 -10
-142 -53 -255 -95 -305 -114 -412 -134 -788 -147 -475 -16 -712 13 -1002 122
-272 102 -346 137 -601 289 -69 41 -286 217 -343 278 -28 30 -89 96 -137 146
-115 123 -198 240 -331 467 l-38 66 12 64 13 64 65 -3 c40 -1 92 5 135 16 99
26 131 43 127 67 -8 47 -14 382 -7 442 l7 65 39 -38 c35 -35 45 -38 101 -41
35 -2 68 0 75 4 8 6 5 45 -13 153 -36 212 -41 406 -15 595 17 129 39 247 57
306 3 12 24 18 89 23 142 10 346 42 689 107 113 22 317 78 355 98 20 11 30 51
13 51 -27 0 -152 141 -152 172 0 11 1 11 78 -8z"/>
<path d="M4545 3600 c-16 -4 -70 -13 -120 -19 -101 -13 -307 -56 -374 -77 -25
-8 -52 -14 -61 -14 -9 0 -84 -21 -166 -46 l-149 -47 -415 -1 c-533 -2 -669
-16 -934 -98 -96 -29 -242 -94 -314 -138 -28 -17 -32 -25 -32 -62 1 -67 19
-131 44 -153 17 -15 26 -39 35 -97 28 -178 125 -394 199 -443 20 -14 48 -33
61 -42 56 -40 438 -20 633 33 48 13 101 26 117 29 50 9 195 74 262 118 44 29
69 54 82 80 28 60 77 289 84 393 l6 96 49 38 c26 21 57 42 68 45 22 7 153 -40
170 -60 6 -7 17 -39 25 -71 18 -72 141 -326 180 -372 35 -42 62 -56 166 -83
203 -54 754 -14 908 66 64 33 125 108 151 186 26 78 44 255 37 369 -4 49 -16
118 -31 162 -49 153 -87 192 -204 207 -83 11 -436 12 -477 1z m395 -64 c143
-21 169 -33 196 -86 52 -104 64 -225 44 -448 -11 -126 -32 -168 -110 -229 -79
-61 -145 -79 -366 -98 l-71 -7 25 119 c23 113 24 123 13 260 -14 166 -47 306
-97 404 l-34 69 22 5 c31 7 183 22 238 23 25 1 88 -5 140 -12z m-568 -53 c-19
-36 -62 -241 -62 -294 0 -144 53 -386 107 -493 l15 -29 -108 6 c-148 8 -252
33 -284 67 -43 46 -80 126 -122 263 -96 315 -100 343 -55 371 12 8 114 37 227
64 240 60 238 59 268 61 19 1 21 -2 14 -16z m-988 -164 c37 -17 43 -67 33
-294 -14 -356 -27 -382 -226 -466 -69 -29 -181 -63 -186 -57 -1 2 1 28 6 58
13 90 10 279 -6 377 -18 112 -40 171 -105 287 -27 49 -50 90 -50 92 0 15 501
18 534 3z m-715 -86 c-24 -92 -24 -257 0 -403 26 -154 27 -160 80 -269 25 -53
46 -100 46 -105 0 -13 -116 -33 -243 -42 -93 -6 -109 -5 -173 17 -115 39 -145
75 -201 245 -26 76 -52 163 -59 193 -13 58 -7 198 10 242 20 54 215 136 391
164 58 9 112 18 120 19 47 11 48 10 29 -61z"/>
<path d="M4798 2215 c-2 -3 -51 -16 -109 -30 -57 -14 -131 -34 -164 -45 -33
-10 -112 -26 -175 -35 -63 -9 -146 -23 -185 -31 -156 -34 -508 -89 -630 -99
-38 -3 -92 -9 -120 -11 -27 -3 -322 -7 -655 -8 -641 -3 -771 -8 -835 -36 -55
-24 -91 -67 -99 -117 -13 -86 133 -316 296 -468 97 -91 193 -135 391 -181 213
-50 370 -64 727 -67 l305 -2 100 28 c55 16 136 42 180 58 44 17 139 51 210 75
133 45 170 62 430 200 199 105 257 149 323 249 59 89 77 140 92 266 11 92 0
220 -21 246 -11 13 -51 18 -61 8z"/>
</g>
</svg>
